<?xml version="1.0" encoding="utf-8"?>
<svg xmlns="http://www.w3.org/2000/svg" xmlns:xlink="http://www.w3.org/1999/xlink" width="800" height="400" viewBox="0 0 3200 1600">
<defs>
  <clipPath id="clip090">
    <rect x="0" y="0" width="3200" height="1600"/>
  </clipPath>
</defs>
<path clip-path="url(#clip090)" d="M0 1600 L3200 1600 L3200 0 L0 0  Z" fill="#ffffff" fill-rule="evenodd" fill-opacity="1"/>
<defs>
  <clipPath id="clip091">
    <rect x="640" y="0" width="2241" height="1600"/>
  </clipPath>
</defs>
<path clip-path="url(#clip090)" d="M245.662 1443.7 L3152.76 1443.7 L3152.76 108.352 L245.662 108.352  Z" fill="#ffffff" fill-rule="evenodd" fill-opacity="1"/>
<defs>
  <clipPath id="clip092">
    <rect x="245" y="108" width="2908" height="1336"/>
  </clipPath>
</defs>
<polyline clip-path="url(#clip092)" style="stroke:#000000; stroke-linecap:round; stroke-linejoin:round; stroke-width:2; stroke-opacity:0.1; fill:none" points="615.266,1443.7 615.266,108.352 "/>
<polyline clip-path="url(#clip092)" style="stroke:#000000; stroke-linecap:round; stroke-linejoin:round; stroke-width:2; stroke-opacity:0.1; fill:none" points="1016.73,1443.7 1016.73,108.352 "/>
<polyline clip-path="url(#clip092)" style="stroke:#000000; stroke-linecap:round; stroke-linejoin:round; stroke-width:2; stroke-opacity:0.1; fill:none" points="1418.19,1443.7 1418.19,108.352 "/>
<polyline clip-path="url(#clip092)" style="stroke:#000000; stroke-linecap:round; stroke-linejoin:round; stroke-width:2; stroke-opacity:0.1; fill:none" points="1819.65,1443.7 1819.65,108.352 "/>
<polyline clip-path="url(#clip092)" style="stroke:#000000; stroke-linecap:round; stroke-linejoin:round; stroke-width:2; stroke-opacity:0.1; fill:none" points="2221.11,1443.7 2221.11,108.352 "/>
<polyline clip-path="url(#clip092)" style="stroke:#000000; stroke-linecap:round; stroke-linejoin:round; stroke-width:2; stroke-opacity:0.1; fill:none" points="2622.57,1443.7 2622.57,108.352 "/>
<polyline clip-path="url(#clip092)" style="stroke:#000000; stroke-linecap:round; stroke-linejoin:round; stroke-width:2; stroke-opacity:0.1; fill:none" points="3024.03,1443.7 3024.03,108.352 "/>
<polyline clip-path="url(#clip092)" style="stroke:#000000; stroke-linecap:round; stroke-linejoin:round; stroke-width:2; stroke-opacity:0.1; fill:none" points="245.662,1405.91 3152.76,1405.91 "/>
<polyline clip-path="url(#clip092)" style="stroke:#000000; stroke-linecap:round; stroke-linejoin:round; stroke-width:2; stroke-opacity:0.1; fill:none" points="245.662,979.652 3152.76,979.652 "/>
<polyline clip-path="url(#clip092)" style="stroke:#000000; stroke-linecap:round; stroke-linejoin:round; stroke-width:2; stroke-opacity:0.1; fill:none" points="245.662,553.397 3152.76,553.397 "/>
<polyline clip-path="url(#clip092)" style="stroke:#000000; stroke-linecap:round; stroke-linejoin:round; stroke-width:2; stroke-opacity:0.1; fill:none" points="245.662,127.142 3152.76,127.142 "/>
<polyline clip-path="url(#clip090)" style="stroke:#000000; stroke-linecap:round; stroke-linejoin:round; stroke-width:4; stroke-opacity:1; fill:none" points="245.662,1443.7 3152.76,1443.7 "/>
<polyline clip-path="url(#clip090)" style="stroke:#000000; stroke-linecap:round; stroke-linejoin:round; stroke-width:4; stroke-opacity:1; fill:none" points="615.266,1443.7 615.266,1424.8 "/>
<polyline clip-path="url(#clip090)" style="stroke:#000000; stroke-linecap:round; stroke-linejoin:round; stroke-width:4; stroke-opacity:1; fill:none" points="1016.73,1443.7 1016.73,1424.8 "/>
<polyline clip-path="url(#clip090)" style="stroke:#000000; stroke-linecap:round; stroke-linejoin:round; stroke-width:4; stroke-opacity:1; fill:none" points="1418.19,1443.7 1418.19,1424.8 "/>
<polyline clip-path="url(#clip090)" style="stroke:#000000; stroke-linecap:round; stroke-linejoin:round; stroke-width:4; stroke-opacity:1; fill:none" points="1819.65,1443.7 1819.65,1424.8 "/>
<polyline clip-path="url(#clip090)" style="stroke:#000000; stroke-linecap:round; stroke-linejoin:round; stroke-width:4; stroke-opacity:1; fill:none" points="2221.11,1443.7 2221.11,1424.8 "/>
<polyline clip-path="url(#clip090)" style="stroke:#000000; stroke-linecap:round; stroke-linejoin:round; stroke-width:4; stroke-opacity:1; fill:none" points="2622.57,1443.7 2622.57,1424.8 "/>
<polyline clip-path="url(#clip090)" style="stroke:#000000; stroke-linecap:round; stroke-linejoin:round; stroke-width:4; stroke-opacity:1; fill:none" points="3024.03,1443.7 3024.03,1424.8 "/>
<path clip-path="url(#clip090)" d="M584.907 1495.67 L614.583 1495.67 L614.583 1499.61 L584.907 1499.61 L584.907 1495.67 Z" fill="#000000" fill-rule="nonzero" fill-opacity="1" /><path clip-path="url(#clip090)" d="M624.722 1477.94 L643.078 1477.94 L643.078 1481.88 L629.004 1481.88 L629.004 1490.35 Q630.022 1490 631.041 1489.84 Q632.059 1489.65 633.078 1489.65 Q638.865 1489.65 642.245 1492.82 Q645.624 1496 645.624 1501.41 Q645.624 1506.99 642.152 1510.09 Q638.68 1513.17 632.36 1513.17 Q630.184 1513.17 627.916 1512.8 Q625.671 1512.43 623.263 1511.69 L623.263 1506.99 Q625.347 1508.12 627.569 1508.68 Q629.791 1509.24 632.268 1509.24 Q636.272 1509.24 638.61 1507.13 Q640.948 1505.02 640.948 1501.41 Q640.948 1497.8 638.61 1495.69 Q636.272 1493.59 632.268 1493.59 Q630.393 1493.59 628.518 1494 Q626.666 1494.42 624.722 1495.3 L624.722 1477.94 Z" fill="#000000" fill-rule="nonzero" fill-opacity="1" /><path clip-path="url(#clip090)" d="M1016.73 1481.02 Q1013.11 1481.02 1011.29 1484.58 Q1009.48 1488.12 1009.48 1495.25 Q1009.48 1502.36 1011.29 1505.93 Q1013.11 1509.47 1016.73 1509.47 Q1020.36 1509.47 1022.17 1505.93 Q1023.99 1502.36 1023.99 1495.25 Q1023.99 1488.12 1022.17 1484.58 Q1020.36 1481.02 1016.73 1481.02 M1016.73 1477.31 Q1022.54 1477.31 1025.59 1481.92 Q1028.67 1486.5 1028.67 1495.25 Q1028.67 1503.98 1025.59 1508.59 Q1022.54 1513.17 1016.73 1513.17 Q1010.92 1513.17 1007.84 1508.59 Q1004.78 1503.98 1004.78 1495.25 Q1004.78 1486.5 1007.84 1481.92 Q1010.92 1477.31 1016.73 1477.31 Z" fill="#000000" fill-rule="nonzero" fill-opacity="1" /><path clip-path="url(#clip090)" d="M1408.46 1477.94 L1426.82 1477.94 L1426.82 1481.88 L1412.75 1481.88 L1412.75 1490.35 Q1413.77 1490 1414.78 1489.84 Q1415.8 1489.65 1416.82 1489.65 Q1422.61 1489.65 1425.99 1492.82 Q1429.37 1496 1429.37 1501.41 Q1429.37 1506.99 1425.89 1510.09 Q1422.42 1513.17 1416.1 1513.17 Q1413.93 1513.17 1411.66 1512.8 Q1409.41 1512.43 1407.01 1511.69 L1407.01 1506.99 Q1409.09 1508.12 1411.31 1508.68 Q1413.53 1509.24 1416.01 1509.24 Q1420.02 1509.24 1422.35 1507.13 Q1424.69 1505.02 1424.69 1501.41 Q1424.69 1497.8 1422.35 1495.69 Q1420.02 1493.59 1416.01 1493.59 Q1414.14 1493.59 1412.26 1494 Q1410.41 1494.42 1408.46 1495.3 L1408.46 1477.94 Z" fill="#000000" fill-rule="nonzero" fill-opacity="1" /><path clip-path="url(#clip090)" d="M1794.33 1508.56 L1801.97 1508.56 L1801.97 1482.2 L1793.66 1483.87 L1793.66 1479.61 L1801.93 1477.94 L1806.6 1477.94 L1806.6 1508.56 L1814.24 1508.56 L1814.24 1512.5 L1794.33 1512.5 L1794.33 1508.56 Z" fill="#000000" fill-rule="nonzero" fill-opacity="1" /><path clip-path="url(#clip090)" d="M1833.69 1481.02 Q1830.08 1481.02 1828.25 1484.58 Q1826.44 1488.12 1826.44 1495.25 Q1826.44 1502.36 1828.25 1505.93 Q1830.08 1509.47 1833.69 1509.47 Q1837.32 1509.47 1839.13 1505.93 Q1840.95 1502.36 1840.95 1495.25 Q1840.95 1488.12 1839.13 1484.58 Q1837.32 1481.02 1833.69 1481.02 M1833.69 1477.31 Q1839.5 1477.31 1842.55 1481.92 Q1845.63 1486.5 1845.63 1495.25 Q1845.63 1503.98 1842.55 1508.59 Q1839.5 1513.17 1833.69 1513.17 Q1827.88 1513.17 1824.8 1508.59 Q1821.74 1503.98 1821.74 1495.25 Q1821.74 1486.5 1824.8 1481.92 Q1827.88 1477.31 1833.69 1477.31 Z" fill="#000000" fill-rule="nonzero" fill-opacity="1" /><path clip-path="url(#clip090)" d="M2196.29 1508.56 L2203.93 1508.56 L2203.93 1482.2 L2195.62 1483.87 L2195.62 1479.61 L2203.89 1477.94 L2208.56 1477.94 L2208.56 1508.56 L2216.2 1508.56 L2216.2 1512.5 L2196.29 1512.5 L2196.29 1508.56 Z" fill="#000000" fill-rule="nonzero" fill-opacity="1" /><path clip-path="url(#clip090)" d="M2225.69 1477.94 L2244.05 1477.94 L2244.05 1481.88 L2229.97 1481.88 L2229.97 1490.35 Q2230.99 1490 2232.01 1489.84 Q2233.03 1489.65 2234.05 1489.65 Q2239.83 1489.65 2243.21 1492.82 Q2246.59 1496 2246.59 1501.41 Q2246.59 1506.99 2243.12 1510.09 Q2239.65 1513.17 2233.33 1513.17 Q2231.15 1513.17 2228.89 1512.8 Q2226.64 1512.43 2224.23 1511.69 L2224.23 1506.99 Q2226.32 1508.12 2228.54 1508.68 Q2230.76 1509.24 2233.24 1509.24 Q2237.24 1509.24 2239.58 1507.13 Q2241.92 1505.02 2241.92 1501.41 Q2241.92 1497.8 2239.58 1495.69 Q2237.24 1493.59 2233.24 1493.59 Q2231.36 1493.59 2229.49 1494 Q2227.64 1494.42 2225.69 1495.3 L2225.69 1477.94 Z" fill="#000000" fill-rule="nonzero" fill-opacity="1" /><path clip-path="url(#clip090)" d="M2601.34 1508.56 L2617.66 1508.56 L2617.66 1512.5 L2595.72 1512.5 L2595.72 1508.56 Q2598.38 1505.81 2602.96 1501.18 Q2607.57 1496.53 2608.75 1495.19 Q2610.99 1492.66 2611.87 1490.93 Q2612.78 1489.17 2612.78 1487.48 Q2612.78 1484.72 2610.83 1482.99 Q2608.91 1481.25 2605.81 1481.25 Q2603.61 1481.25 2601.16 1482.01 Q2598.73 1482.78 2595.95 1484.33 L2595.95 1479.61 Q2598.77 1478.47 2601.23 1477.89 Q2603.68 1477.31 2605.72 1477.31 Q2611.09 1477.31 2614.28 1480 Q2617.48 1482.69 2617.48 1487.18 Q2617.48 1489.31 2616.67 1491.23 Q2615.88 1493.12 2613.77 1495.72 Q2613.19 1496.39 2610.09 1499.61 Q2606.99 1502.8 2601.34 1508.56 Z" fill="#000000" fill-rule="nonzero" fill-opacity="1" /><path clip-path="url(#clip090)" d="M2637.48 1481.02 Q2633.86 1481.02 2632.04 1484.58 Q2630.23 1488.12 2630.23 1495.25 Q2630.23 1502.36 2632.04 1505.93 Q2633.86 1509.47 2637.48 1509.47 Q2641.11 1509.47 2642.92 1505.93 Q2644.74 1502.36 2644.74 1495.25 Q2644.74 1488.12 2642.92 1484.58 Q2641.11 1481.02 2637.48 1481.02 M2637.48 1477.31 Q2643.29 1477.31 2646.34 1481.92 Q2649.42 1486.5 2649.42 1495.25 Q2649.42 1503.98 2646.34 1508.59 Q2643.29 1513.17 2637.48 1513.17 Q2631.67 1513.17 2628.59 1508.59 Q2625.53 1503.98 2625.53 1495.25 Q2625.53 1486.5 2628.59 1481.92 Q2631.67 1477.31 2637.48 1477.31 Z" fill="#000000" fill-rule="nonzero" fill-opacity="1" /><path clip-path="url(#clip090)" d="M3003.3 1508.56 L3019.62 1508.56 L3019.62 1512.5 L2997.67 1512.5 L2997.67 1508.56 Q3000.34 1505.81 3004.92 1501.18 Q3009.53 1496.53 3010.71 1495.19 Q3012.95 1492.66 3013.83 1490.93 Q3014.73 1489.17 3014.73 1487.48 Q3014.73 1484.72 3012.79 1482.99 Q3010.87 1481.25 3007.77 1481.25 Q3005.57 1481.25 3003.11 1482.01 Q3000.68 1482.78 2997.91 1484.33 L2997.91 1479.61 Q3000.73 1478.47 3003.18 1477.89 Q3005.64 1477.31 3007.67 1477.31 Q3013.04 1477.31 3016.24 1480 Q3019.43 1482.69 3019.43 1487.18 Q3019.43 1489.31 3018.62 1491.23 Q3017.84 1493.12 3015.73 1495.72 Q3015.15 1496.39 3012.05 1499.61 Q3008.95 1502.8 3003.3 1508.56 Z" fill="#000000" fill-rule="nonzero" fill-opacity="1" /><path clip-path="url(#clip090)" d="M3029.48 1477.94 L3047.84 1477.94 L3047.84 1481.88 L3033.76 1481.88 L3033.76 1490.35 Q3034.78 1490 3035.8 1489.84 Q3036.82 1489.65 3037.84 1489.65 Q3043.62 1489.65 3047 1492.82 Q3050.38 1496 3050.38 1501.41 Q3050.38 1506.99 3046.91 1510.09 Q3043.44 1513.17 3037.12 1513.17 Q3034.94 1513.17 3032.67 1512.8 Q3030.43 1512.43 3028.02 1511.69 L3028.02 1506.99 Q3030.11 1508.12 3032.33 1508.68 Q3034.55 1509.24 3037.03 1509.24 Q3041.03 1509.24 3043.37 1507.13 Q3045.71 1505.02 3045.71 1501.41 Q3045.71 1497.8 3043.37 1495.69 Q3041.03 1493.59 3037.03 1493.59 Q3035.15 1493.59 3033.28 1494 Q3031.42 1494.42 3029.48 1495.3 L3029.48 1477.94 Z" fill="#000000" fill-rule="nonzero" fill-opacity="1" /><path clip-path="url(#clip090)" d="M1512.09 1554.6 L1512.09 1560.87 Q1508.43 1559.12 1505.18 1558.26 Q1501.94 1557.4 1498.91 1557.4 Q1493.66 1557.4 1490.8 1559.44 Q1487.96 1561.48 1487.96 1565.23 Q1487.96 1568.39 1489.84 1570.01 Q1491.75 1571.6 1497.03 1572.59 L1500.92 1573.38 Q1508.11 1574.75 1511.52 1578.22 Q1514.95 1581.66 1514.95 1587.45 Q1514.95 1594.36 1510.31 1597.92 Q1505.69 1601.49 1496.75 1601.49 Q1493.37 1601.49 1489.55 1600.72 Q1485.77 1599.96 1481.69 1598.46 L1481.69 1591.84 Q1485.61 1594.04 1489.36 1595.15 Q1493.12 1596.27 1496.75 1596.27 Q1502.25 1596.27 1505.25 1594.1 Q1508.24 1591.94 1508.24 1587.93 Q1508.24 1584.43 1506.07 1582.45 Q1503.94 1580.48 1499.04 1579.49 L1495.12 1578.73 Q1487.93 1577.3 1484.72 1574.24 Q1481.5 1571.19 1481.5 1565.74 Q1481.5 1559.44 1485.93 1555.81 Q1490.38 1552.18 1498.18 1552.18 Q1501.52 1552.18 1504.99 1552.79 Q1508.46 1553.39 1512.09 1554.6 Z" fill="#000000" fill-rule="nonzero" fill-opacity="1" /><path clip-path="url(#clip090)" d="M1540.93 1582.64 Q1533.83 1582.64 1531.09 1584.27 Q1528.35 1585.89 1528.35 1589.81 Q1528.35 1592.92 1530.39 1594.77 Q1532.46 1596.59 1535.99 1596.59 Q1540.86 1596.59 1543.79 1593.15 Q1546.75 1589.68 1546.75 1583.95 L1546.75 1582.64 L1540.93 1582.64 M1552.61 1580.23 L1552.61 1600.56 L1546.75 1600.56 L1546.75 1595.15 Q1544.75 1598.4 1541.75 1599.96 Q1538.76 1601.49 1534.43 1601.49 Q1528.96 1601.49 1525.71 1598.43 Q1522.5 1595.34 1522.5 1590.19 Q1522.5 1584.17 1526.51 1581.12 Q1530.55 1578.06 1538.54 1578.06 L1546.75 1578.06 L1546.75 1577.49 Q1546.75 1573.45 1544.08 1571.25 Q1541.43 1569.02 1536.63 1569.02 Q1533.57 1569.02 1530.68 1569.75 Q1527.78 1570.49 1525.11 1571.95 L1525.11 1566.54 Q1528.32 1565.3 1531.35 1564.69 Q1534.37 1564.06 1537.23 1564.06 Q1544.97 1564.06 1548.79 1568.07 Q1552.61 1572.08 1552.61 1580.23 Z" fill="#000000" fill-rule="nonzero" fill-opacity="1" /><path clip-path="url(#clip090)" d="M1592.42 1571.76 Q1594.62 1567.81 1597.68 1565.93 Q1600.73 1564.06 1604.87 1564.06 Q1610.44 1564.06 1613.46 1567.97 Q1616.49 1571.85 1616.49 1579.05 L1616.49 1600.56 L1610.6 1600.56 L1610.6 1579.24 Q1610.6 1574.11 1608.78 1571.63 Q1606.97 1569.15 1603.25 1569.15 Q1598.69 1569.15 1596.05 1572.17 Q1593.41 1575.2 1593.41 1580.42 L1593.41 1600.56 L1587.52 1600.56 L1587.52 1579.24 Q1587.52 1574.08 1585.71 1571.63 Q1583.89 1569.15 1580.11 1569.15 Q1575.62 1569.15 1572.98 1572.2 Q1570.34 1575.23 1570.34 1580.42 L1570.34 1600.56 L1564.45 1600.56 L1564.45 1564.92 L1570.34 1564.92 L1570.34 1570.45 Q1572.34 1567.18 1575.14 1565.62 Q1577.94 1564.06 1581.79 1564.06 Q1585.68 1564.06 1588.38 1566.03 Q1591.12 1568 1592.42 1571.76 Z" fill="#000000" fill-rule="nonzero" fill-opacity="1" /><path clip-path="url(#clip090)" d="M1633.83 1595.22 L1633.83 1614.12 L1627.94 1614.12 L1627.94 1564.92 L1633.83 1564.92 L1633.83 1570.33 Q1635.68 1567.14 1638.48 1565.62 Q1641.31 1564.06 1645.23 1564.06 Q1651.72 1564.06 1655.76 1569.21 Q1659.84 1574.37 1659.84 1582.77 Q1659.84 1591.17 1655.76 1596.33 Q1651.72 1601.49 1645.23 1601.49 Q1641.31 1601.49 1638.48 1599.96 Q1635.68 1598.4 1633.83 1595.22 M1653.76 1582.77 Q1653.76 1576.31 1651.08 1572.65 Q1648.44 1568.96 1643.8 1568.96 Q1639.15 1568.96 1636.47 1572.65 Q1633.83 1576.31 1633.83 1582.77 Q1633.83 1589.23 1636.47 1592.92 Q1639.15 1596.59 1643.8 1596.59 Q1648.44 1596.59 1651.08 1592.92 Q1653.76 1589.23 1653.76 1582.77 Z" fill="#000000" fill-rule="nonzero" fill-opacity="1" /><path clip-path="url(#clip090)" d="M1669.54 1551.04 L1675.4 1551.04 L1675.4 1600.56 L1669.54 1600.56 L1669.54 1551.04 Z" fill="#000000" fill-rule="nonzero" fill-opacity="1" /><path clip-path="url(#clip090)" d="M1718.15 1581.28 L1718.15 1584.14 L1691.22 1584.14 Q1691.6 1590.19 1694.85 1593.37 Q1698.13 1596.52 1703.95 1596.52 Q1707.33 1596.52 1710.48 1595.69 Q1713.66 1594.87 1716.78 1593.21 L1716.78 1598.75 Q1713.63 1600.09 1710.32 1600.79 Q1707.01 1601.49 1703.6 1601.49 Q1695.07 1601.49 1690.07 1596.52 Q1685.11 1591.56 1685.11 1583.09 Q1685.11 1574.34 1689.82 1569.21 Q1694.56 1564.06 1702.58 1564.06 Q1709.78 1564.06 1713.95 1568.7 Q1718.15 1573.32 1718.15 1581.28 M1712.29 1579.56 Q1712.23 1574.75 1709.59 1571.89 Q1706.98 1569.02 1702.65 1569.02 Q1697.74 1569.02 1694.78 1571.79 Q1691.86 1574.56 1691.41 1579.59 L1712.29 1579.56 Z" fill="#000000" fill-rule="nonzero" fill-opacity="1" /><path clip-path="url(#clip090)" d="M1744.28 1564.92 L1750.48 1564.92 L1761.62 1594.83 L1772.76 1564.92 L1778.97 1564.92 L1765.6 1600.56 L1757.65 1600.56 L1744.28 1564.92 Z" fill="#000000" fill-rule="nonzero" fill-opacity="1" /><path clip-path="url(#clip090)" d="M1803.26 1582.64 Q1796.16 1582.64 1793.42 1584.27 Q1790.68 1585.89 1790.68 1589.81 Q1790.68 1592.92 1792.72 1594.77 Q1794.79 1596.59 1798.32 1596.59 Q1803.19 1596.59 1806.12 1593.15 Q1809.08 1589.68 1809.08 1583.95 L1809.08 1582.64 L1803.26 1582.64 M1814.94 1580.23 L1814.94 1600.56 L1809.08 1600.56 L1809.08 1595.15 Q1807.08 1598.4 1804.08 1599.96 Q1801.09 1601.49 1796.76 1601.49 Q1791.29 1601.49 1788.04 1598.43 Q1784.83 1595.34 1784.83 1590.19 Q1784.83 1584.17 1788.84 1581.12 Q1792.88 1578.06 1800.87 1578.06 L1809.08 1578.06 L1809.08 1577.49 Q1809.08 1573.45 1806.41 1571.25 Q1803.77 1569.02 1798.96 1569.02 Q1795.9 1569.02 1793.01 1569.75 Q1790.11 1570.49 1787.44 1571.95 L1787.44 1566.54 Q1790.65 1565.3 1793.68 1564.69 Q1796.7 1564.06 1799.56 1564.06 Q1807.3 1564.06 1811.12 1568.07 Q1814.94 1572.08 1814.94 1580.23 Z" fill="#000000" fill-rule="nonzero" fill-opacity="1" /><path clip-path="url(#clip090)" d="M1827 1551.04 L1832.86 1551.04 L1832.86 1600.56 L1827 1600.56 L1827 1551.04 Z" fill="#000000" fill-rule="nonzero" fill-opacity="1" /><path clip-path="url(#clip090)" d="M1844.51 1586.5 L1844.51 1564.92 L1850.36 1564.92 L1850.36 1586.27 Q1850.36 1591.33 1852.34 1593.88 Q1854.31 1596.39 1858.26 1596.39 Q1863 1596.39 1865.74 1593.37 Q1868.5 1590.35 1868.5 1585.13 L1868.5 1564.92 L1874.36 1564.92 L1874.36 1600.56 L1868.5 1600.56 L1868.5 1595.09 Q1866.37 1598.34 1863.54 1599.93 Q1860.74 1601.49 1857.01 1601.49 Q1850.87 1601.49 1847.69 1597.67 Q1844.51 1593.85 1844.51 1586.5 M1859.24 1564.06 L1859.24 1564.06 Z" fill="#000000" fill-rule="nonzero" fill-opacity="1" /><path clip-path="url(#clip090)" d="M1916.92 1581.28 L1916.92 1584.14 L1889.99 1584.14 Q1890.37 1590.19 1893.62 1593.37 Q1896.9 1596.52 1902.72 1596.52 Q1906.09 1596.52 1909.25 1595.69 Q1912.43 1594.87 1915.55 1593.21 L1915.55 1598.75 Q1912.4 1600.09 1909.09 1600.79 Q1905.78 1601.49 1902.37 1601.49 Q1893.84 1601.49 1888.84 1596.52 Q1883.88 1591.56 1883.88 1583.09 Q1883.88 1574.34 1888.59 1569.21 Q1893.33 1564.06 1901.35 1564.06 Q1908.55 1564.06 1912.71 1568.7 Q1916.92 1573.32 1916.92 1581.28 M1911.06 1579.56 Q1911 1574.75 1908.35 1571.89 Q1905.74 1569.02 1901.42 1569.02 Q1896.51 1569.02 1893.55 1571.79 Q1890.63 1574.56 1890.18 1579.59 L1911.06 1579.56 Z" fill="#000000" fill-rule="nonzero" fill-opacity="1" /><polyline clip-path="url(#clip090)" style="stroke:#000000; stroke-linecap:round; stroke-linejoin:round; stroke-width:4; stroke-opacity:1; fill:none" points="245.662,1443.7 245.662,108.352 "/>
<polyline clip-path="url(#clip090)" style="stroke:#000000; stroke-linecap:round; stroke-linejoin:round; stroke-width:4; stroke-opacity:1; fill:none" points="245.662,1405.91 264.56,1405.91 "/>
<polyline clip-path="url(#clip090)" style="stroke:#000000; stroke-linecap:round; stroke-linejoin:round; stroke-width:4; stroke-opacity:1; fill:none" points="245.662,979.652 264.56,979.652 "/>
<polyline clip-path="url(#clip090)" style="stroke:#000000; stroke-linecap:round; stroke-linejoin:round; stroke-width:4; stroke-opacity:1; fill:none" points="245.662,553.397 264.56,553.397 "/>
<polyline clip-path="url(#clip090)" style="stroke:#000000; stroke-linecap:round; stroke-linejoin:round; stroke-width:4; stroke-opacity:1; fill:none" points="245.662,127.142 264.56,127.142 "/>
<path clip-path="url(#clip090)" d="M110.325 1391.71 Q106.713 1391.71 104.885 1395.27 Q103.079 1398.81 103.079 1405.94 Q103.079 1413.05 104.885 1416.61 Q106.713 1420.15 110.325 1420.15 Q113.959 1420.15 115.764 1416.61 Q117.593 1413.05 117.593 1405.94 Q117.593 1398.81 115.764 1395.27 Q113.959 1391.71 110.325 1391.71 M110.325 1388 Q116.135 1388 119.19 1392.61 Q122.269 1397.19 122.269 1405.94 Q122.269 1414.67 119.19 1419.28 Q116.135 1423.86 110.325 1423.86 Q104.514 1423.86 101.436 1419.28 Q98.3802 1414.67 98.3802 1405.94 Q98.3802 1397.19 101.436 1392.61 Q104.514 1388 110.325 1388 Z" fill="#000000" fill-rule="nonzero" fill-opacity="1" /><path clip-path="url(#clip090)" d="M130.486 1417.31 L135.371 1417.31 L135.371 1423.19 L130.486 1423.19 L130.486 1417.31 Z" fill="#000000" fill-rule="nonzero" fill-opacity="1" /><path clip-path="url(#clip090)" d="M155.556 1391.71 Q151.945 1391.71 150.116 1395.27 Q148.31 1398.81 148.31 1405.94 Q148.31 1413.05 150.116 1416.61 Q151.945 1420.15 155.556 1420.15 Q159.19 1420.15 160.996 1416.61 Q162.824 1413.05 162.824 1405.94 Q162.824 1398.81 160.996 1395.27 Q159.19 1391.71 155.556 1391.71 M155.556 1388 Q161.366 1388 164.421 1392.61 Q167.5 1397.19 167.5 1405.94 Q167.5 1414.67 164.421 1419.28 Q161.366 1423.86 155.556 1423.86 Q149.746 1423.86 146.667 1419.28 Q143.611 1414.67 143.611 1405.94 Q143.611 1397.19 146.667 1392.61 Q149.746 1388 155.556 1388 Z" fill="#000000" fill-rule="nonzero" fill-opacity="1" /><path clip-path="url(#clip090)" d="M185.718 1391.71 Q182.107 1391.71 180.278 1395.27 Q178.472 1398.81 178.472 1405.94 Q178.472 1413.05 180.278 1416.61 Q182.107 1420.15 185.718 1420.15 Q189.352 1420.15 191.157 1416.61 Q192.986 1413.05 192.986 1405.94 Q192.986 1398.81 191.157 1395.27 Q189.352 1391.71 185.718 1391.71 M185.718 1388 Q191.528 1388 194.583 1392.61 Q197.662 1397.19 197.662 1405.94 Q197.662 1414.67 194.583 1419.28 Q191.528 1423.86 185.718 1423.86 Q179.907 1423.86 176.829 1419.28 Q173.773 1414.67 173.773 1405.94 Q173.773 1397.19 176.829 1392.61 Q179.907 1388 185.718 1388 Z" fill="#000000" fill-rule="nonzero" fill-opacity="1" /><path clip-path="url(#clip090)" d="M111.32 965.451 Q107.709 965.451 105.88 969.016 Q104.075 972.557 104.075 979.687 Q104.075 986.793 105.88 990.358 Q107.709 993.9 111.32 993.9 Q114.954 993.9 116.76 990.358 Q118.588 986.793 118.588 979.687 Q118.588 972.557 116.76 969.016 Q114.954 965.451 111.32 965.451 M111.32 961.747 Q117.13 961.747 120.186 966.353 Q123.264 970.937 123.264 979.687 Q123.264 988.414 120.186 993.02 Q117.13 997.603 111.32 997.603 Q105.51 997.603 102.431 993.02 Q99.3755 988.414 99.3755 979.687 Q99.3755 970.937 102.431 966.353 Q105.51 961.747 111.32 961.747 Z" fill="#000000" fill-rule="nonzero" fill-opacity="1" /><path clip-path="url(#clip090)" d="M131.482 991.052 L136.366 991.052 L136.366 996.932 L131.482 996.932 L131.482 991.052 Z" fill="#000000" fill-rule="nonzero" fill-opacity="1" /><path clip-path="url(#clip090)" d="M156.551 965.451 Q152.94 965.451 151.111 969.016 Q149.306 972.557 149.306 979.687 Q149.306 986.793 151.111 990.358 Q152.94 993.9 156.551 993.9 Q160.185 993.9 161.991 990.358 Q163.82 986.793 163.82 979.687 Q163.82 972.557 161.991 969.016 Q160.185 965.451 156.551 965.451 M156.551 961.747 Q162.361 961.747 165.417 966.353 Q168.496 970.937 168.496 979.687 Q168.496 988.414 165.417 993.02 Q162.361 997.603 156.551 997.603 Q150.741 997.603 147.662 993.02 Q144.607 988.414 144.607 979.687 Q144.607 970.937 147.662 966.353 Q150.741 961.747 156.551 961.747 Z" fill="#000000" fill-rule="nonzero" fill-opacity="1" /><path clip-path="url(#clip090)" d="M176.759 962.372 L195.116 962.372 L195.116 966.307 L181.042 966.307 L181.042 974.779 Q182.06 974.432 183.079 974.27 Q184.097 974.085 185.116 974.085 Q190.903 974.085 194.282 977.256 Q197.662 980.427 197.662 985.844 Q197.662 991.423 194.19 994.525 Q190.718 997.603 184.398 997.603 Q182.222 997.603 179.954 997.233 Q177.708 996.863 175.301 996.122 L175.301 991.423 Q177.384 992.557 179.607 993.113 Q181.829 993.668 184.306 993.668 Q188.31 993.668 190.648 991.562 Q192.986 989.455 192.986 985.844 Q192.986 982.233 190.648 980.127 Q188.31 978.02 184.306 978.02 Q182.431 978.02 180.556 978.437 Q178.704 978.853 176.759 979.733 L176.759 962.372 Z" fill="#000000" fill-rule="nonzero" fill-opacity="1" /><path clip-path="url(#clip090)" d="M110.325 539.196 Q106.713 539.196 104.885 542.76 Q103.079 546.302 103.079 553.432 Q103.079 560.538 104.885 564.103 Q106.713 567.644 110.325 567.644 Q113.959 567.644 115.764 564.103 Q117.593 560.538 117.593 553.432 Q117.593 546.302 115.764 542.76 Q113.959 539.196 110.325 539.196 M110.325 535.492 Q116.135 535.492 119.19 540.098 Q122.269 544.682 122.269 553.432 Q122.269 562.158 119.19 566.765 Q116.135 571.348 110.325 571.348 Q104.514 571.348 101.436 566.765 Q98.3802 562.158 98.3802 553.432 Q98.3802 544.682 101.436 540.098 Q104.514 535.492 110.325 535.492 Z" fill="#000000" fill-rule="nonzero" fill-opacity="1" /><path clip-path="url(#clip090)" d="M130.486 564.797 L135.371 564.797 L135.371 570.677 L130.486 570.677 L130.486 564.797 Z" fill="#000000" fill-rule="nonzero" fill-opacity="1" /><path clip-path="url(#clip090)" d="M146.366 566.742 L154.005 566.742 L154.005 540.376 L145.695 542.043 L145.695 537.784 L153.959 536.117 L158.634 536.117 L158.634 566.742 L166.273 566.742 L166.273 570.677 L146.366 570.677 L146.366 566.742 Z" fill="#000000" fill-rule="nonzero" fill-opacity="1" /><path clip-path="url(#clip090)" d="M185.718 539.196 Q182.107 539.196 180.278 542.76 Q178.472 546.302 178.472 553.432 Q178.472 560.538 180.278 564.103 Q182.107 567.644 185.718 567.644 Q189.352 567.644 191.157 564.103 Q192.986 560.538 192.986 553.432 Q192.986 546.302 191.157 542.76 Q189.352 539.196 185.718 539.196 M185.718 535.492 Q191.528 535.492 194.583 540.098 Q197.662 544.682 197.662 553.432 Q197.662 562.158 194.583 566.765 Q191.528 571.348 185.718 571.348 Q179.907 571.348 176.829 566.765 Q173.773 562.158 173.773 553.432 Q173.773 544.682 176.829 540.098 Q179.907 535.492 185.718 535.492 Z" fill="#000000" fill-rule="nonzero" fill-opacity="1" /><path clip-path="url(#clip090)" d="M111.32 112.94 Q107.709 112.94 105.88 116.505 Q104.075 120.047 104.075 127.176 Q104.075 134.283 105.88 137.848 Q107.709 141.389 111.32 141.389 Q114.954 141.389 116.76 137.848 Q118.588 134.283 118.588 127.176 Q118.588 120.047 116.76 116.505 Q114.954 112.94 111.32 112.94 M111.32 109.237 Q117.13 109.237 120.186 113.843 Q123.264 118.426 123.264 127.176 Q123.264 135.903 120.186 140.51 Q117.13 145.093 111.32 145.093 Q105.51 145.093 102.431 140.51 Q99.3755 135.903 99.3755 127.176 Q99.3755 118.426 102.431 113.843 Q105.51 109.237 111.32 109.237 Z" fill="#000000" fill-rule="nonzero" fill-opacity="1" /><path clip-path="url(#clip090)" d="M131.482 138.542 L136.366 138.542 L136.366 144.422 L131.482 144.422 L131.482 138.542 Z" fill="#000000" fill-rule="nonzero" fill-opacity="1" /><path clip-path="url(#clip090)" d="M147.361 140.487 L155 140.487 L155 114.121 L146.69 115.788 L146.69 111.528 L154.954 109.862 L159.63 109.862 L159.63 140.487 L167.269 140.487 L167.269 144.422 L147.361 144.422 L147.361 140.487 Z" fill="#000000" fill-rule="nonzero" fill-opacity="1" /><path clip-path="url(#clip090)" d="M176.759 109.862 L195.116 109.862 L195.116 113.797 L181.042 113.797 L181.042 122.269 Q182.06 121.922 183.079 121.76 Q184.097 121.575 185.116 121.575 Q190.903 121.575 194.282 124.746 Q197.662 127.917 197.662 133.334 Q197.662 138.912 194.19 142.014 Q190.718 145.093 184.398 145.093 Q182.222 145.093 179.954 144.723 Q177.708 144.352 175.301 143.612 L175.301 138.912 Q177.384 140.047 179.607 140.602 Q181.829 141.158 184.306 141.158 Q188.31 141.158 190.648 139.051 Q192.986 136.945 192.986 133.334 Q192.986 129.723 190.648 127.616 Q188.31 125.51 184.306 125.51 Q182.431 125.51 180.556 125.926 Q178.704 126.343 176.759 127.223 L176.759 109.862 Z" fill="#000000" fill-rule="nonzero" fill-opacity="1" /><path clip-path="url(#clip090)" d="M-6.11231 889.336 L30.8406 889.336 L30.8406 881.569 Q30.8406 871.734 26.3846 867.183 Q21.9286 862.6 12.3164 862.6 Q2.76785 862.6 -1.65631 867.183 Q-6.11231 871.734 -6.11231 881.569 L-6.11231 889.336 M-11.3958 895.765 L-11.3958 882.556 Q-11.3958 868.743 -5.63488 862.281 Q0.0942579 855.82 12.3164 855.82 Q24.6022 855.82 30.3632 862.313 Q36.1242 868.806 36.1242 882.556 L36.1242 895.765 L-11.3958 895.765 Z" fill="#000000" fill-rule="nonzero" fill-opacity="1" /><path clip-path="url(#clip090)" d="M16.8361 815.334 L19.7006 815.334 L19.7006 842.261 Q25.7481 841.879 28.9309 838.633 Q32.0819 835.354 32.0819 829.53 Q32.0819 826.156 31.2544 823.005 Q30.4269 819.822 28.7718 816.703 L34.3099 816.703 Q35.6467 819.854 36.347 823.164 Q37.0472 826.474 37.0472 829.88 Q37.0472 838.41 32.0819 843.407 Q27.1167 848.372 18.6503 848.372 Q9.89745 848.372 4.77305 843.662 Q-0.38317 838.919 -0.38317 830.898 Q-0.38317 823.705 4.2638 819.536 Q8.87893 815.334 16.8361 815.334 M15.1173 821.191 Q10.3112 821.254 7.44665 823.896 Q4.58208 826.506 4.58208 830.835 Q4.58208 835.736 7.35116 838.696 Q10.1202 841.625 15.1492 842.07 L15.1173 821.191 Z" fill="#000000" fill-rule="nonzero" fill-opacity="1" /><path clip-path="url(#clip090)" d="M14.6081 776.09 L36.1242 776.09 L36.1242 781.946 L14.799 781.946 Q9.7383 781.946 7.22385 783.919 Q4.7094 785.893 4.7094 789.84 Q4.7094 794.582 7.73311 797.319 Q10.7568 800.057 15.9767 800.057 L36.1242 800.057 L36.1242 805.945 L0.4762 805.945 L0.4762 800.057 L6.01437 800.057 Q2.79968 797.956 1.20826 795.123 Q-0.38317 792.259 -0.38317 788.535 Q-0.38317 782.392 3.43625 779.241 Q7.22385 776.09 14.6081 776.09 Z" fill="#000000" fill-rule="nonzero" fill-opacity="1" /><path clip-path="url(#clip090)" d="M1.52654 741.683 L7.06471 741.683 Q5.79157 744.166 5.15499 746.839 Q4.51842 749.513 4.51842 752.377 Q4.51842 756.738 5.85522 758.934 Q7.19202 761.098 9.86562 761.098 Q11.9026 761.098 13.0803 759.539 Q14.2261 757.979 15.2765 753.269 L15.7221 751.263 Q17.0589 745.025 19.5097 742.415 Q21.9286 739.773 26.2891 739.773 Q31.2544 739.773 34.1508 743.72 Q37.0472 747.635 37.0472 754.51 Q37.0472 757.374 36.4743 760.494 Q35.9332 763.581 34.8192 767.019 L28.7718 767.019 Q30.4587 763.772 31.318 760.621 Q32.1456 757.47 32.1456 754.383 Q32.1456 750.245 30.7451 748.017 Q29.3129 745.789 26.7347 745.789 Q24.3476 745.789 23.0745 747.412 Q21.8013 749.004 20.6237 754.446 L20.1462 756.483 Q19.0004 761.926 16.6451 764.345 Q14.258 766.764 10.1202 766.764 Q5.09134 766.764 2.35408 763.199 Q-0.38317 759.634 -0.38317 753.078 Q-0.38317 749.831 0.0942579 746.967 Q0.571686 744.102 1.52654 741.683 Z" fill="#000000" fill-rule="nonzero" fill-opacity="1" /><path clip-path="url(#clip090)" d="M0.4762 730.448 L0.4762 724.591 L36.1242 724.591 L36.1242 730.448 L0.4762 730.448 M-13.401 730.448 L-13.401 724.591 L-5.98499 724.591 L-5.98499 730.448 L-13.401 730.448 Z" fill="#000000" fill-rule="nonzero" fill-opacity="1" /><path clip-path="url(#clip090)" d="M-9.64527 706.544 L0.4762 706.544 L0.4762 694.481 L5.02768 694.481 L5.02768 706.544 L24.3794 706.544 Q28.7399 706.544 29.9813 705.367 Q31.2226 704.157 31.2226 700.497 L31.2226 694.481 L36.1242 694.481 L36.1242 700.497 Q36.1242 707.276 33.6097 709.854 Q31.0634 712.433 24.3794 712.433 L5.02768 712.433 L5.02768 716.729 L0.4762 716.729 L0.4762 712.433 L-9.64527 712.433 L-9.64527 706.544 Z" fill="#000000" fill-rule="nonzero" fill-opacity="1" /><path clip-path="url(#clip090)" d="M39.4343 671.947 Q45.8 674.429 47.7416 676.785 Q49.6831 679.14 49.6831 683.087 L49.6831 687.765 L44.7815 687.765 L44.7815 684.328 Q44.7815 681.909 43.6357 680.572 Q42.4899 679.235 38.2248 677.612 L35.5512 676.562 L0.4762 690.98 L0.4762 684.774 L28.358 673.634 L0.4762 662.494 L0.4762 656.287 L39.4343 671.947 Z" fill="#000000" fill-rule="nonzero" fill-opacity="1" /><path clip-path="url(#clip090)" d="M1720.35 27.2059 L1703.95 49.2833 L1721.21 72.576 L1712.41 72.576 L1699.21 54.752 L1686 72.576 L1677.21 72.576 L1694.83 48.8377 L1678.71 27.2059 L1687.5 27.2059 L1699.53 43.369 L1711.56 27.2059 L1720.35 27.2059 Z" fill="#000000" fill-rule="nonzero" fill-opacity="1" /><polyline clip-path="url(#clip092)" style="stroke:#009af9; stroke-linecap:round; stroke-linejoin:round; stroke-width:8; stroke-opacity:1; fill:none" points="327.938,1404.78 335.017,1404.51 342.095,1404.18 349.173,1403.77 356.251,1403.28 376.98,1401.2 397.708,1397.71 418.437,1392.04 439.165,1383.13 449.53,1377.04 459.894,1369.6 470.258,1360.57 480.622,1349.71 490.987,1336.77 501.351,1321.48 511.715,1303.56 522.079,1282.76 526.901,1272.03 531.722,1260.6 536.544,1248.44 541.365,1235.54 546.186,1221.88 551.008,1207.44 555.829,1192.21 560.651,1176.18 565.472,1159.34 570.294,1141.7 575.115,1123.24 579.937,1103.98 584.758,1083.92 589.579,1063.08 594.401,1041.48 599.222,1019.13 605.685,988.066 612.147,955.804 618.61,922.446 625.072,888.109 637.997,817.053 650.923,743.914 663.848,670.212 676.773,597.667 683.235,562.404 689.698,528.134 696.16,495.097 702.623,463.533 707.963,438.731 713.303,415.225 718.643,393.14 723.983,372.594 729.323,353.702 734.663,336.566 740.003,321.285 745.343,307.943 750.683,296.618 756.023,287.374 761.363,280.264 766.703,275.329 772.043,272.598 777.383,272.084 782.723,273.791 788.063,277.706 793.029,283.307 797.995,290.767 802.961,300.046 807.926,311.096 812.892,323.859 817.858,338.27 822.823,354.255 827.789,371.733 832.755,390.616 837.721,410.812 842.686,432.221 847.652,454.74 852.618,478.261 857.583,502.674 862.549,527.866 867.515,553.723 892.449,689.528 917.384,824.984 923.618,857.276 929.852,888.586 936.085,918.758 942.319,947.649 948.553,975.13 954.786,1001.09 961.02,1025.42 967.254,1048.04 972.845,1066.8 978.437,1084.09 984.028,1099.85 989.62,1114.05 995.212,1126.69 1000.8,1137.73 1006.4,1147.18 1011.99,1155.02 1017.58,1161.28 1023.17,1165.94 1028.76,1169.04 1034.35,1170.59 1039.94,1170.62 1045.54,1169.16 1051.13,1166.24 1056.72,1161.92 1063.12,1155.3 1069.52,1146.96 1075.92,1137.01 1082.32,1125.51 1088.72,1112.59 1095.12,1098.34 1101.52,1082.88 1107.92,1066.34 1120.72,1030.53 1133.52,992.024 1146.33,952.027 1159.13,911.812 1168.69,882.386 1178.26,854.11 1187.83,827.515 1197.4,803.108 1202.18,791.875 1206.97,781.364 1211.75,771.626 1216.54,762.711 1221.32,754.663 1226.11,747.523 1230.89,741.327 1235.67,736.109 1241.79,730.9 1247.91,727.377 1254.03,725.573 1260.15,725.505 1266.27,727.177 1272.39,730.579 1278.51,735.687 1284.63,742.463 1290.75,750.857 1296.87,760.808 1302.99,772.241 1309.1,785.073 1315.22,799.212 1321.34,814.554 1327.46,830.993 1333.58,848.415 1344.75,882.361 1355.92,918.449 1367.09,955.935 1378.26,994.095 1389.43,1032.25 1400.6,1069.77 1411.77,1106.11 1422.94,1140.81 1429.3,1159.68 1435.65,1177.85 1442.01,1195.26 1448.37,1211.88 1454.72,1227.69 1461.08,1242.67 1467.44,1256.8 1473.79,1270.09 1480.15,1282.54 1486.51,1294.16 1492.86,1304.96 1499.22,1314.98 1511.93,1332.74 1524.64,1347.68 1534.72,1357.71 1544.8,1366.29 1554.88,1373.57 1564.96,1379.7 1585.11,1389.05 1605.27,1395.36 1630.31,1400.24 1655.35,1402.99 1680.39,1404.47 1705.43,1405.23 1743.78,1405.71 1782.14,1405.86 1890.29,1405.91 1971.1,1405.91 2063.01,1405.9 2154.03,1405.67 2204.1,1404.82 2254.17,1401.69 2273.29,1399.14 2292.41,1395.32 2311.53,1389.75 2330.66,1381.87 2342.72,1375.42 2354.79,1367.62 2366.85,1358.3 2378.92,1347.32 2390.98,1334.51 2403.05,1319.78 2415.11,1303.04 2427.18,1284.28 2438.34,1265.16 2449.5,1244.42 2460.66,1222.21 2471.81,1198.74 2494.13,1149.1 2516.45,1098.32 2527.96,1072.82 2539.47,1048.49 2550.98,1025.87 2562.49,1005.5 2568.24,996.305 2573.99,987.859 2579.75,980.211 2585.5,973.412 2591.26,967.506 2597.01,962.533 2602.77,958.526 2608.52,955.512 2614.35,953.491 2620.18,952.526 2626.02,952.623 2631.85,953.782 2637.68,955.994 2643.52,959.245 2649.35,963.51 2655.18,968.761 2661.01,974.962 2666.85,982.07 2672.68,990.038 2678.51,998.811 2684.34,1008.33 2690.18,1018.54 2696.01,1029.37 2701.84,1040.76 2714.02,1066.02 2726.2,1092.75 2738.38,1120.31 2750.57,1148.1 2762.75,1175.56 2774.93,1202.18 2787.11,1227.56 2799.29,1251.37 2808.88,1268.86 2818.48,1285.13 2828.07,1300.15 2837.67,1313.88 2847.27,1326.34 2856.86,1337.55 2866.46,1347.55 2876.05,1356.4 2886.98,1365.17 2897.9,1372.67 2908.83,1379 2919.76,1384.31 2941.61,1392.33 2963.46,1397.65 2985.31,1401.05 3007.16,1403.14 3029.01,1404.38 3050.87,1405.09 3055.77,1405.2 3060.67,1405.3 3065.58,1405.38 3070.48,1405.46 "/>
<polyline clip-path="url(#clip092)" style="stroke:#e26f46; stroke-linecap:round; stroke-linejoin:round; stroke-width:4; stroke-opacity:1; fill:none" points="361.057,1395.64 369.283,1394.15 377.51,1392.51 385.736,1390.66 393.962,1388.49 402.188,1385.91 410.414,1382.81 418.64,1379.13 426.866,1374.78 435.092,1369.68 443.318,1363.76 451.544,1356.89 459.77,1348.94 467.996,1339.73 476.222,1329.07 484.448,1316.77 492.674,1302.66 500.9,1286.57 509.126,1268.4 517.352,1248.08 525.578,1225.56 533.804,1200.82 542.03,1173.84 550.256,1144.58 558.482,1113.02 566.708,1079.09 574.934,1042.8 583.16,1004.18 591.386,963.39 599.612,920.651 607.838,876.301 616.064,830.739 624.29,784.393 632.516,737.674 640.742,690.946 648.968,644.511 657.194,598.618 665.42,553.48 673.646,509.306 681.872,466.321 690.098,424.785 698.324,384.991 706.55,347.253 714.776,311.889 723.002,279.197 731.228,249.443 739.454,222.865 747.68,199.692 755.906,180.182 764.132,164.653 772.358,153.501 780.584,147.18 788.81,146.145 797.036,150.759 805.262,161.193 813.488,177.355 821.714,198.865 829.941,225.094 838.167,255.262 846.393,288.547 854.619,324.202 862.845,361.618 871.071,400.348 879.297,440.083 887.523,480.6 895.749,521.708 903.975,563.204 912.201,604.85 920.427,646.377 928.653,687.503 936.879,727.951 945.105,767.469 953.331,805.823 961.557,842.781 969.783,878.082 978.009,911.397 986.235,942.309 994.461,970.313 1002.69,994.847 1010.91,1015.35 1019.14,1031.35 1027.36,1042.5 1035.59,1048.66 1043.82,1049.92 1052.04,1046.51 1060.27,1038.82 1068.5,1027.28 1076.72,1012.34 1084.95,994.41 1093.17,973.85 1101.4,951.004 1109.63,926.217 1117.85,899.865 1126.08,872.366 1134.3,844.173 1142.53,815.759 1150.76,787.58 1158.98,760.051 1167.21,733.524 1175.43,708.289 1183.66,684.59 1191.89,662.652 1200.11,642.714 1208.34,625.049 1216.56,609.961 1224.79,597.77 1233.02,588.763 1241.24,583.15 1249.47,581.013 1257.69,582.285 1265.92,586.738 1274.15,594.013 1282.37,603.656 1290.6,615.19 1298.82,628.181 1307.05,642.314 1315.28,657.449 1323.5,673.65 1331.73,691.163 1339.95,710.363 1348.18,731.662 1356.41,755.405 1364.63,781.782 1372.86,810.778 1381.08,842.158 1389.31,875.498 1397.54,910.232 1405.76,945.72 1413.99,981.299 1422.21,1016.33 1430.44,1050.25 1438.67,1082.57 1446.89,1112.93 1455.12,1141.08 1463.34,1166.91 1471.57,1190.39 1479.8,1211.59 1488.02,1230.66 1496.25,1247.77 1504.47,1263.14 1512.7,1277.03 1520.93,1289.69 1529.15,1301.37 1537.38,1312.3 1545.6,1322.64 1553.83,1332.51 1562.06,1341.93 1570.28,1350.88 1578.51,1359.28 1586.73,1367.02 1594.96,1374.03 1603.19,1380.21 1611.41,1385.55 1619.64,1390.04 1627.86,1393.73 1636.09,1396.7 1644.32,1399.02 1652.54,1400.79 1660.77,1402.11 1668.99,1403.08 1677.22,1403.77 1685.45,1404.26 "/>
</svg>
