<?xml version="1.0" encoding="utf-8"?>
<svg xmlns="http://www.w3.org/2000/svg" xmlns:xlink="http://www.w3.org/1999/xlink" width="800" height="400" viewBox="0 0 3200 1600">
<defs>
  <clipPath id="clip970">
    <rect x="0" y="0" width="3200" height="1600"/>
  </clipPath>
</defs>
<path clip-path="url(#clip970)" d="M0 1600 L3200 1600 L3200 0 L0 0  Z" fill="#ffffff" fill-rule="evenodd" fill-opacity="1"/>
<defs>
  <clipPath id="clip971">
    <rect x="640" y="0" width="2241" height="1600"/>
  </clipPath>
</defs>
<path clip-path="url(#clip970)" d="M194.76 1495.09 L3152.76 1495.09 L3152.76 47.2441 L194.76 47.2441  Z" fill="#ffffff" fill-rule="evenodd" fill-opacity="1"/>
<defs>
  <clipPath id="clip972">
    <rect x="194" y="47" width="2959" height="1449"/>
  </clipPath>
</defs>
<polyline clip-path="url(#clip972)" style="stroke:#000000; stroke-linecap:round; stroke-linejoin:round; stroke-width:2; stroke-opacity:0.1; fill:none" points="570.835,1495.09 570.835,47.2441 "/>
<polyline clip-path="url(#clip972)" style="stroke:#000000; stroke-linecap:round; stroke-linejoin:round; stroke-width:2; stroke-opacity:0.1; fill:none" points="979.325,1495.09 979.325,47.2441 "/>
<polyline clip-path="url(#clip972)" style="stroke:#000000; stroke-linecap:round; stroke-linejoin:round; stroke-width:2; stroke-opacity:0.1; fill:none" points="1387.82,1495.09 1387.82,47.2441 "/>
<polyline clip-path="url(#clip972)" style="stroke:#000000; stroke-linecap:round; stroke-linejoin:round; stroke-width:2; stroke-opacity:0.1; fill:none" points="1796.3,1495.09 1796.3,47.2441 "/>
<polyline clip-path="url(#clip972)" style="stroke:#000000; stroke-linecap:round; stroke-linejoin:round; stroke-width:2; stroke-opacity:0.1; fill:none" points="2204.79,1495.09 2204.79,47.2441 "/>
<polyline clip-path="url(#clip972)" style="stroke:#000000; stroke-linecap:round; stroke-linejoin:round; stroke-width:2; stroke-opacity:0.1; fill:none" points="2613.28,1495.09 2613.28,47.2441 "/>
<polyline clip-path="url(#clip972)" style="stroke:#000000; stroke-linecap:round; stroke-linejoin:round; stroke-width:2; stroke-opacity:0.1; fill:none" points="3021.77,1495.09 3021.77,47.2441 "/>
<polyline clip-path="url(#clip972)" style="stroke:#000000; stroke-linecap:round; stroke-linejoin:round; stroke-width:2; stroke-opacity:0.1; fill:none" points="194.76,1454.11 3152.76,1454.11 "/>
<polyline clip-path="url(#clip972)" style="stroke:#000000; stroke-linecap:round; stroke-linejoin:round; stroke-width:2; stroke-opacity:0.1; fill:none" points="194.76,1248.71 3152.76,1248.71 "/>
<polyline clip-path="url(#clip972)" style="stroke:#000000; stroke-linecap:round; stroke-linejoin:round; stroke-width:2; stroke-opacity:0.1; fill:none" points="194.76,1043.31 3152.76,1043.31 "/>
<polyline clip-path="url(#clip972)" style="stroke:#000000; stroke-linecap:round; stroke-linejoin:round; stroke-width:2; stroke-opacity:0.1; fill:none" points="194.76,837.912 3152.76,837.912 "/>
<polyline clip-path="url(#clip972)" style="stroke:#000000; stroke-linecap:round; stroke-linejoin:round; stroke-width:2; stroke-opacity:0.1; fill:none" points="194.76,632.512 3152.76,632.512 "/>
<polyline clip-path="url(#clip972)" style="stroke:#000000; stroke-linecap:round; stroke-linejoin:round; stroke-width:2; stroke-opacity:0.1; fill:none" points="194.76,427.112 3152.76,427.112 "/>
<polyline clip-path="url(#clip972)" style="stroke:#000000; stroke-linecap:round; stroke-linejoin:round; stroke-width:2; stroke-opacity:0.1; fill:none" points="194.76,221.712 3152.76,221.712 "/>
<polyline clip-path="url(#clip970)" style="stroke:#000000; stroke-linecap:round; stroke-linejoin:round; stroke-width:4; stroke-opacity:1; fill:none" points="194.76,1495.09 3152.76,1495.09 "/>
<polyline clip-path="url(#clip970)" style="stroke:#000000; stroke-linecap:round; stroke-linejoin:round; stroke-width:4; stroke-opacity:1; fill:none" points="570.835,1495.09 570.835,1476.19 "/>
<polyline clip-path="url(#clip970)" style="stroke:#000000; stroke-linecap:round; stroke-linejoin:round; stroke-width:4; stroke-opacity:1; fill:none" points="979.325,1495.09 979.325,1476.19 "/>
<polyline clip-path="url(#clip970)" style="stroke:#000000; stroke-linecap:round; stroke-linejoin:round; stroke-width:4; stroke-opacity:1; fill:none" points="1387.82,1495.09 1387.82,1476.19 "/>
<polyline clip-path="url(#clip970)" style="stroke:#000000; stroke-linecap:round; stroke-linejoin:round; stroke-width:4; stroke-opacity:1; fill:none" points="1796.3,1495.09 1796.3,1476.19 "/>
<polyline clip-path="url(#clip970)" style="stroke:#000000; stroke-linecap:round; stroke-linejoin:round; stroke-width:4; stroke-opacity:1; fill:none" points="2204.79,1495.09 2204.79,1476.19 "/>
<polyline clip-path="url(#clip970)" style="stroke:#000000; stroke-linecap:round; stroke-linejoin:round; stroke-width:4; stroke-opacity:1; fill:none" points="2613.28,1495.09 2613.28,1476.19 "/>
<polyline clip-path="url(#clip970)" style="stroke:#000000; stroke-linecap:round; stroke-linejoin:round; stroke-width:4; stroke-opacity:1; fill:none" points="3021.77,1495.09 3021.77,1476.19 "/>
<path clip-path="url(#clip970)" d="M540.477 1547.06 L570.152 1547.06 L570.152 1550.99 L540.477 1550.99 L540.477 1547.06 Z" fill="#000000" fill-rule="nonzero" fill-opacity="1" /><path clip-path="url(#clip970)" d="M580.291 1529.33 L598.648 1529.33 L598.648 1533.26 L584.574 1533.26 L584.574 1541.74 Q585.592 1541.39 586.611 1541.23 Q587.629 1541.04 588.648 1541.04 Q594.435 1541.04 597.814 1544.21 Q601.194 1547.38 601.194 1552.8 Q601.194 1558.38 597.722 1561.48 Q594.249 1564.56 587.93 1564.56 Q585.754 1564.56 583.486 1564.19 Q581.24 1563.82 578.833 1563.08 L578.833 1558.38 Q580.916 1559.51 583.138 1560.07 Q585.361 1560.62 587.837 1560.62 Q591.842 1560.62 594.18 1558.52 Q596.518 1556.41 596.518 1552.8 Q596.518 1549.19 594.18 1547.08 Q591.842 1544.98 587.837 1544.98 Q585.962 1544.98 584.087 1545.39 Q582.236 1545.81 580.291 1546.69 L580.291 1529.33 Z" fill="#000000" fill-rule="nonzero" fill-opacity="1" /><path clip-path="url(#clip970)" d="M979.325 1532.41 Q975.714 1532.41 973.885 1535.97 Q972.08 1539.51 972.08 1546.64 Q972.08 1553.75 973.885 1557.31 Q975.714 1560.86 979.325 1560.86 Q982.959 1560.86 984.765 1557.31 Q986.594 1553.75 986.594 1546.64 Q986.594 1539.51 984.765 1535.97 Q982.959 1532.41 979.325 1532.41 M979.325 1528.7 Q985.135 1528.7 988.191 1533.31 Q991.27 1537.89 991.27 1546.64 Q991.27 1555.37 988.191 1559.98 Q985.135 1564.56 979.325 1564.56 Q973.515 1564.56 970.436 1559.98 Q967.381 1555.37 967.381 1546.64 Q967.381 1537.89 970.436 1533.31 Q973.515 1528.7 979.325 1528.7 Z" fill="#000000" fill-rule="nonzero" fill-opacity="1" /><path clip-path="url(#clip970)" d="M1378.09 1529.33 L1396.45 1529.33 L1396.45 1533.26 L1382.38 1533.26 L1382.38 1541.74 Q1383.39 1541.39 1384.41 1541.23 Q1385.43 1541.04 1386.45 1541.04 Q1392.24 1541.04 1395.62 1544.21 Q1399 1547.38 1399 1552.8 Q1399 1558.38 1395.52 1561.48 Q1392.05 1564.56 1385.73 1564.56 Q1383.56 1564.56 1381.29 1564.19 Q1379.04 1563.82 1376.63 1563.08 L1376.63 1558.38 Q1378.72 1559.51 1380.94 1560.07 Q1383.16 1560.62 1385.64 1560.62 Q1389.64 1560.62 1391.98 1558.52 Q1394.32 1556.41 1394.32 1552.8 Q1394.32 1549.19 1391.98 1547.08 Q1389.64 1544.98 1385.64 1544.98 Q1383.76 1544.98 1381.89 1545.39 Q1380.04 1545.81 1378.09 1546.69 L1378.09 1529.33 Z" fill="#000000" fill-rule="nonzero" fill-opacity="1" /><path clip-path="url(#clip970)" d="M1770.99 1559.95 L1778.63 1559.95 L1778.63 1533.59 L1770.32 1535.25 L1770.32 1530.99 L1778.59 1529.33 L1783.26 1529.33 L1783.26 1559.95 L1790.9 1559.95 L1790.9 1563.89 L1770.99 1563.89 L1770.99 1559.95 Z" fill="#000000" fill-rule="nonzero" fill-opacity="1" /><path clip-path="url(#clip970)" d="M1810.34 1532.41 Q1806.73 1532.41 1804.9 1535.97 Q1803.1 1539.51 1803.1 1546.64 Q1803.1 1553.75 1804.9 1557.31 Q1806.73 1560.86 1810.34 1560.86 Q1813.98 1560.86 1815.78 1557.31 Q1817.61 1553.75 1817.61 1546.64 Q1817.61 1539.51 1815.78 1535.97 Q1813.98 1532.41 1810.34 1532.41 M1810.34 1528.7 Q1816.15 1528.7 1819.21 1533.31 Q1822.29 1537.89 1822.29 1546.64 Q1822.29 1555.37 1819.21 1559.98 Q1816.15 1564.56 1810.34 1564.56 Q1804.53 1564.56 1801.46 1559.98 Q1798.4 1555.37 1798.4 1546.64 Q1798.4 1537.89 1801.46 1533.31 Q1804.53 1528.7 1810.34 1528.7 Z" fill="#000000" fill-rule="nonzero" fill-opacity="1" /><path clip-path="url(#clip970)" d="M2179.98 1559.95 L2187.62 1559.95 L2187.62 1533.59 L2179.31 1535.25 L2179.31 1530.99 L2187.57 1529.33 L2192.25 1529.33 L2192.25 1559.95 L2199.89 1559.95 L2199.89 1563.89 L2179.98 1563.89 L2179.98 1559.95 Z" fill="#000000" fill-rule="nonzero" fill-opacity="1" /><path clip-path="url(#clip970)" d="M2209.38 1529.33 L2227.73 1529.33 L2227.73 1533.26 L2213.66 1533.26 L2213.66 1541.74 Q2214.68 1541.39 2215.7 1541.23 Q2216.72 1541.04 2217.73 1541.04 Q2223.52 1541.04 2226.9 1544.21 Q2230.28 1547.38 2230.28 1552.8 Q2230.28 1558.38 2226.81 1561.48 Q2223.34 1564.56 2217.02 1564.56 Q2214.84 1564.56 2212.57 1564.19 Q2210.33 1563.82 2207.92 1563.08 L2207.92 1558.38 Q2210 1559.51 2212.23 1560.07 Q2214.45 1560.62 2216.92 1560.62 Q2220.93 1560.62 2223.27 1558.52 Q2225.6 1556.41 2225.6 1552.8 Q2225.6 1549.19 2223.27 1547.08 Q2220.93 1544.98 2216.92 1544.98 Q2215.05 1544.98 2213.17 1545.39 Q2211.32 1545.81 2209.38 1546.69 L2209.38 1529.33 Z" fill="#000000" fill-rule="nonzero" fill-opacity="1" /><path clip-path="url(#clip970)" d="M2592.06 1559.95 L2608.38 1559.95 L2608.38 1563.89 L2586.43 1563.89 L2586.43 1559.95 Q2589.1 1557.2 2593.68 1552.57 Q2598.28 1547.92 2599.47 1546.57 Q2601.71 1544.05 2602.59 1542.31 Q2603.49 1540.55 2603.49 1538.86 Q2603.49 1536.11 2601.55 1534.37 Q2599.63 1532.64 2596.53 1532.64 Q2594.33 1532.64 2591.87 1533.4 Q2589.44 1534.17 2586.66 1535.72 L2586.66 1530.99 Q2589.49 1529.86 2591.94 1529.28 Q2594.4 1528.7 2596.43 1528.7 Q2601.8 1528.7 2605 1531.39 Q2608.19 1534.07 2608.19 1538.56 Q2608.19 1540.69 2607.38 1542.61 Q2606.6 1544.51 2604.49 1547.11 Q2603.91 1547.78 2600.81 1550.99 Q2597.71 1554.19 2592.06 1559.95 Z" fill="#000000" fill-rule="nonzero" fill-opacity="1" /><path clip-path="url(#clip970)" d="M2628.19 1532.41 Q2624.58 1532.41 2622.75 1535.97 Q2620.95 1539.51 2620.95 1546.64 Q2620.95 1553.75 2622.75 1557.31 Q2624.58 1560.86 2628.19 1560.86 Q2631.83 1560.86 2633.63 1557.31 Q2635.46 1553.75 2635.46 1546.64 Q2635.46 1539.51 2633.63 1535.97 Q2631.83 1532.41 2628.19 1532.41 M2628.19 1528.7 Q2634 1528.7 2637.06 1533.31 Q2640.14 1537.89 2640.14 1546.64 Q2640.14 1555.37 2637.06 1559.98 Q2634 1564.56 2628.19 1564.56 Q2622.38 1564.56 2619.3 1559.98 Q2616.25 1555.37 2616.25 1546.64 Q2616.25 1537.89 2619.3 1533.31 Q2622.38 1528.7 2628.19 1528.7 Z" fill="#000000" fill-rule="nonzero" fill-opacity="1" /><path clip-path="url(#clip970)" d="M3001.05 1559.95 L3017.37 1559.95 L3017.37 1563.89 L2995.42 1563.89 L2995.42 1559.95 Q2998.08 1557.2 3002.67 1552.57 Q3007.27 1547.92 3008.45 1546.57 Q3010.7 1544.05 3011.58 1542.31 Q3012.48 1540.55 3012.48 1538.86 Q3012.48 1536.11 3010.54 1534.37 Q3008.62 1532.64 3005.51 1532.64 Q3003.31 1532.64 3000.86 1533.4 Q2998.43 1534.17 2995.65 1535.72 L2995.65 1530.99 Q2998.48 1529.86 3000.93 1529.28 Q3003.38 1528.7 3005.42 1528.7 Q3010.79 1528.7 3013.99 1531.39 Q3017.18 1534.07 3017.18 1538.56 Q3017.18 1540.69 3016.37 1542.61 Q3015.58 1544.51 3013.48 1547.11 Q3012.9 1547.78 3009.8 1550.99 Q3006.69 1554.19 3001.05 1559.95 Z" fill="#000000" fill-rule="nonzero" fill-opacity="1" /><path clip-path="url(#clip970)" d="M3027.23 1529.33 L3045.58 1529.33 L3045.58 1533.26 L3031.51 1533.26 L3031.51 1541.74 Q3032.53 1541.39 3033.55 1541.23 Q3034.56 1541.04 3035.58 1541.04 Q3041.37 1541.04 3044.75 1544.21 Q3048.13 1547.38 3048.13 1552.8 Q3048.13 1558.38 3044.66 1561.48 Q3041.18 1564.56 3034.86 1564.56 Q3032.69 1564.56 3030.42 1564.19 Q3028.18 1563.82 3025.77 1563.08 L3025.77 1558.38 Q3027.85 1559.51 3030.07 1560.07 Q3032.3 1560.62 3034.77 1560.62 Q3038.78 1560.62 3041.11 1558.52 Q3043.45 1556.41 3043.45 1552.8 Q3043.45 1549.19 3041.11 1547.08 Q3038.78 1544.98 3034.77 1544.98 Q3032.9 1544.98 3031.02 1545.39 Q3029.17 1545.81 3027.23 1546.69 L3027.23 1529.33 Z" fill="#000000" fill-rule="nonzero" fill-opacity="1" /><polyline clip-path="url(#clip970)" style="stroke:#000000; stroke-linecap:round; stroke-linejoin:round; stroke-width:4; stroke-opacity:1; fill:none" points="194.76,1495.09 194.76,47.2441 "/>
<polyline clip-path="url(#clip970)" style="stroke:#000000; stroke-linecap:round; stroke-linejoin:round; stroke-width:4; stroke-opacity:1; fill:none" points="194.76,1454.11 213.658,1454.11 "/>
<polyline clip-path="url(#clip970)" style="stroke:#000000; stroke-linecap:round; stroke-linejoin:round; stroke-width:4; stroke-opacity:1; fill:none" points="194.76,1248.71 213.658,1248.71 "/>
<polyline clip-path="url(#clip970)" style="stroke:#000000; stroke-linecap:round; stroke-linejoin:round; stroke-width:4; stroke-opacity:1; fill:none" points="194.76,1043.31 213.658,1043.31 "/>
<polyline clip-path="url(#clip970)" style="stroke:#000000; stroke-linecap:round; stroke-linejoin:round; stroke-width:4; stroke-opacity:1; fill:none" points="194.76,837.912 213.658,837.912 "/>
<polyline clip-path="url(#clip970)" style="stroke:#000000; stroke-linecap:round; stroke-linejoin:round; stroke-width:4; stroke-opacity:1; fill:none" points="194.76,632.512 213.658,632.512 "/>
<polyline clip-path="url(#clip970)" style="stroke:#000000; stroke-linecap:round; stroke-linejoin:round; stroke-width:4; stroke-opacity:1; fill:none" points="194.76,427.112 213.658,427.112 "/>
<polyline clip-path="url(#clip970)" style="stroke:#000000; stroke-linecap:round; stroke-linejoin:round; stroke-width:4; stroke-opacity:1; fill:none" points="194.76,221.712 213.658,221.712 "/>
<path clip-path="url(#clip970)" d="M59.4226 1439.91 Q55.8115 1439.91 53.9828 1443.47 Q52.1773 1447.02 52.1773 1454.15 Q52.1773 1461.25 53.9828 1464.82 Q55.8115 1468.36 59.4226 1468.36 Q63.0569 1468.36 64.8624 1464.82 Q66.6911 1461.25 66.6911 1454.15 Q66.6911 1447.02 64.8624 1443.47 Q63.0569 1439.91 59.4226 1439.91 M59.4226 1436.21 Q65.2328 1436.21 68.2883 1440.81 Q71.367 1445.4 71.367 1454.15 Q71.367 1462.87 68.2883 1467.48 Q65.2328 1472.06 59.4226 1472.06 Q53.6125 1472.06 50.5338 1467.48 Q47.4782 1462.87 47.4782 1454.15 Q47.4782 1445.4 50.5338 1440.81 Q53.6125 1436.21 59.4226 1436.21 Z" fill="#000000" fill-rule="nonzero" fill-opacity="1" /><path clip-path="url(#clip970)" d="M79.5845 1465.51 L84.4688 1465.51 L84.4688 1471.39 L79.5845 1471.39 L79.5845 1465.51 Z" fill="#000000" fill-rule="nonzero" fill-opacity="1" /><path clip-path="url(#clip970)" d="M104.654 1439.91 Q101.043 1439.91 99.2141 1443.47 Q97.4085 1447.02 97.4085 1454.15 Q97.4085 1461.25 99.2141 1464.82 Q101.043 1468.36 104.654 1468.36 Q108.288 1468.36 110.094 1464.82 Q111.922 1461.25 111.922 1454.15 Q111.922 1447.02 110.094 1443.47 Q108.288 1439.91 104.654 1439.91 M104.654 1436.21 Q110.464 1436.21 113.52 1440.81 Q116.598 1445.4 116.598 1454.15 Q116.598 1462.87 113.52 1467.48 Q110.464 1472.06 104.654 1472.06 Q98.8437 1472.06 95.765 1467.48 Q92.7095 1462.87 92.7095 1454.15 Q92.7095 1445.4 95.765 1440.81 Q98.8437 1436.21 104.654 1436.21 Z" fill="#000000" fill-rule="nonzero" fill-opacity="1" /><path clip-path="url(#clip970)" d="M134.816 1439.91 Q131.205 1439.91 129.376 1443.47 Q127.57 1447.02 127.57 1454.15 Q127.57 1461.25 129.376 1464.82 Q131.205 1468.36 134.816 1468.36 Q138.45 1468.36 140.256 1464.82 Q142.084 1461.25 142.084 1454.15 Q142.084 1447.02 140.256 1443.47 Q138.45 1439.91 134.816 1439.91 M134.816 1436.21 Q140.626 1436.21 143.681 1440.81 Q146.76 1445.4 146.76 1454.15 Q146.76 1462.87 143.681 1467.48 Q140.626 1472.06 134.816 1472.06 Q129.006 1472.06 125.927 1467.48 Q122.871 1462.87 122.871 1454.15 Q122.871 1445.4 125.927 1440.81 Q129.006 1436.21 134.816 1436.21 Z" fill="#000000" fill-rule="nonzero" fill-opacity="1" /><path clip-path="url(#clip970)" d="M61.0198 1234.51 Q57.4087 1234.51 55.58 1238.07 Q53.7745 1241.62 53.7745 1248.75 Q53.7745 1255.85 55.58 1259.42 Q57.4087 1262.96 61.0198 1262.96 Q64.6541 1262.96 66.4596 1259.42 Q68.2883 1255.85 68.2883 1248.75 Q68.2883 1241.62 66.4596 1238.07 Q64.6541 1234.51 61.0198 1234.51 M61.0198 1230.81 Q66.83 1230.81 69.8855 1235.41 Q72.9642 1240 72.9642 1248.75 Q72.9642 1257.47 69.8855 1262.08 Q66.83 1266.66 61.0198 1266.66 Q55.2097 1266.66 52.131 1262.08 Q49.0754 1257.47 49.0754 1248.75 Q49.0754 1240 52.131 1235.41 Q55.2097 1230.81 61.0198 1230.81 Z" fill="#000000" fill-rule="nonzero" fill-opacity="1" /><path clip-path="url(#clip970)" d="M81.1818 1260.11 L86.066 1260.11 L86.066 1265.99 L81.1818 1265.99 L81.1818 1260.11 Z" fill="#000000" fill-rule="nonzero" fill-opacity="1" /><path clip-path="url(#clip970)" d="M106.251 1234.51 Q102.64 1234.51 100.811 1238.07 Q99.0057 1241.62 99.0057 1248.75 Q99.0057 1255.85 100.811 1259.42 Q102.64 1262.96 106.251 1262.96 Q109.885 1262.96 111.691 1259.42 Q113.52 1255.85 113.52 1248.75 Q113.52 1241.62 111.691 1238.07 Q109.885 1234.51 106.251 1234.51 M106.251 1230.81 Q112.061 1230.81 115.117 1235.41 Q118.195 1240 118.195 1248.75 Q118.195 1257.47 115.117 1262.08 Q112.061 1266.66 106.251 1266.66 Q100.441 1266.66 97.3622 1262.08 Q94.3067 1257.47 94.3067 1248.75 Q94.3067 1240 97.3622 1235.41 Q100.441 1230.81 106.251 1230.81 Z" fill="#000000" fill-rule="nonzero" fill-opacity="1" /><path clip-path="url(#clip970)" d="M130.441 1262.06 L146.76 1262.06 L146.76 1265.99 L124.816 1265.99 L124.816 1262.06 Q127.478 1259.3 132.061 1254.67 Q136.668 1250.02 137.848 1248.68 Q140.093 1246.15 140.973 1244.42 Q141.876 1242.66 141.876 1240.97 Q141.876 1238.21 139.931 1236.48 Q138.01 1234.74 134.908 1234.74 Q132.709 1234.74 130.256 1235.51 Q127.825 1236.27 125.047 1237.82 L125.047 1233.1 Q127.871 1231.96 130.325 1231.39 Q132.779 1230.81 134.816 1230.81 Q140.186 1230.81 143.38 1233.49 Q146.575 1236.18 146.575 1240.67 Q146.575 1242.8 145.765 1244.72 Q144.978 1246.62 142.871 1249.21 Q142.293 1249.88 139.191 1253.1 Q136.089 1256.29 130.441 1262.06 Z" fill="#000000" fill-rule="nonzero" fill-opacity="1" /><path clip-path="url(#clip970)" d="M58.9365 1029.11 Q55.3254 1029.11 53.4967 1032.67 Q51.6912 1036.22 51.6912 1043.35 Q51.6912 1050.45 53.4967 1054.02 Q55.3254 1057.56 58.9365 1057.56 Q62.5707 1057.56 64.3763 1054.02 Q66.205 1050.45 66.205 1043.35 Q66.205 1036.22 64.3763 1032.67 Q62.5707 1029.11 58.9365 1029.11 M58.9365 1025.41 Q64.7467 1025.41 67.8022 1030.01 Q70.8809 1034.6 70.8809 1043.35 Q70.8809 1052.07 67.8022 1056.68 Q64.7467 1061.26 58.9365 1061.26 Q53.1264 1061.26 50.0477 1056.68 Q46.9921 1052.07 46.9921 1043.35 Q46.9921 1034.6 50.0477 1030.01 Q53.1264 1025.41 58.9365 1025.41 Z" fill="#000000" fill-rule="nonzero" fill-opacity="1" /><path clip-path="url(#clip970)" d="M79.0984 1054.71 L83.9827 1054.71 L83.9827 1060.59 L79.0984 1060.59 L79.0984 1054.71 Z" fill="#000000" fill-rule="nonzero" fill-opacity="1" /><path clip-path="url(#clip970)" d="M104.168 1029.11 Q100.557 1029.11 98.728 1032.67 Q96.9224 1036.22 96.9224 1043.35 Q96.9224 1050.45 98.728 1054.02 Q100.557 1057.56 104.168 1057.56 Q107.802 1057.56 109.608 1054.02 Q111.436 1050.45 111.436 1043.35 Q111.436 1036.22 109.608 1032.67 Q107.802 1029.11 104.168 1029.11 M104.168 1025.41 Q109.978 1025.41 113.033 1030.01 Q116.112 1034.6 116.112 1043.35 Q116.112 1052.07 113.033 1056.68 Q109.978 1061.26 104.168 1061.26 Q98.3576 1061.26 95.2789 1056.68 Q92.2234 1052.07 92.2234 1043.35 Q92.2234 1034.6 95.2789 1030.01 Q98.3576 1025.41 104.168 1025.41 Z" fill="#000000" fill-rule="nonzero" fill-opacity="1" /><path clip-path="url(#clip970)" d="M137.177 1030.11 L125.371 1048.55 L137.177 1048.55 L137.177 1030.11 M135.95 1026.03 L141.83 1026.03 L141.83 1048.55 L146.76 1048.55 L146.76 1052.44 L141.83 1052.44 L141.83 1060.59 L137.177 1060.59 L137.177 1052.44 L121.575 1052.44 L121.575 1047.93 L135.95 1026.03 Z" fill="#000000" fill-rule="nonzero" fill-opacity="1" /><path clip-path="url(#clip970)" d="M59.2606 823.71 Q55.6495 823.71 53.8208 827.275 Q52.0152 830.817 52.0152 837.946 Q52.0152 845.053 53.8208 848.618 Q55.6495 852.159 59.2606 852.159 Q62.8948 852.159 64.7004 848.618 Q66.5291 845.053 66.5291 837.946 Q66.5291 830.817 64.7004 827.275 Q62.8948 823.71 59.2606 823.71 M59.2606 820.007 Q65.0707 820.007 68.1263 824.613 Q71.205 829.196 71.205 837.946 Q71.205 846.673 68.1263 851.28 Q65.0707 855.863 59.2606 855.863 Q53.4504 855.863 50.3717 851.28 Q47.3162 846.673 47.3162 837.946 Q47.3162 829.196 50.3717 824.613 Q53.4504 820.007 59.2606 820.007 Z" fill="#000000" fill-rule="nonzero" fill-opacity="1" /><path clip-path="url(#clip970)" d="M79.4225 849.312 L84.3067 849.312 L84.3067 855.192 L79.4225 855.192 L79.4225 849.312 Z" fill="#000000" fill-rule="nonzero" fill-opacity="1" /><path clip-path="url(#clip970)" d="M104.492 823.71 Q100.881 823.71 99.052 827.275 Q97.2465 830.817 97.2465 837.946 Q97.2465 845.053 99.052 848.618 Q100.881 852.159 104.492 852.159 Q108.126 852.159 109.932 848.618 Q111.76 845.053 111.76 837.946 Q111.76 830.817 109.932 827.275 Q108.126 823.71 104.492 823.71 M104.492 820.007 Q110.302 820.007 113.358 824.613 Q116.436 829.196 116.436 837.946 Q116.436 846.673 113.358 851.28 Q110.302 855.863 104.492 855.863 Q98.6817 855.863 95.603 851.28 Q92.5474 846.673 92.5474 837.946 Q92.5474 829.196 95.603 824.613 Q98.6817 820.007 104.492 820.007 Z" fill="#000000" fill-rule="nonzero" fill-opacity="1" /><path clip-path="url(#clip970)" d="M135.232 836.048 Q132.084 836.048 130.232 838.201 Q128.404 840.354 128.404 844.104 Q128.404 847.83 130.232 850.006 Q132.084 852.159 135.232 852.159 Q138.381 852.159 140.209 850.006 Q142.061 847.83 142.061 844.104 Q142.061 840.354 140.209 838.201 Q138.381 836.048 135.232 836.048 M144.515 821.395 L144.515 825.655 Q142.756 824.821 140.95 824.382 Q139.168 823.942 137.408 823.942 Q132.779 823.942 130.325 827.067 Q127.894 830.192 127.547 836.511 Q128.913 834.497 130.973 833.432 Q133.033 832.344 135.51 832.344 Q140.718 832.344 143.728 835.516 Q146.76 838.664 146.76 844.104 Q146.76 849.428 143.612 852.645 Q140.464 855.863 135.232 855.863 Q129.237 855.863 126.066 851.28 Q122.894 846.673 122.894 837.946 Q122.894 829.752 126.783 824.891 Q130.672 820.007 137.223 820.007 Q138.982 820.007 140.765 820.354 Q142.57 820.701 144.515 821.395 Z" fill="#000000" fill-rule="nonzero" fill-opacity="1" /><path clip-path="url(#clip970)" d="M59.5152 618.31 Q55.9041 618.31 54.0754 621.875 Q52.2699 625.417 52.2699 632.546 Q52.2699 639.653 54.0754 643.218 Q55.9041 646.759 59.5152 646.759 Q63.1494 646.759 64.955 643.218 Q66.7837 639.653 66.7837 632.546 Q66.7837 625.417 64.955 621.875 Q63.1494 618.31 59.5152 618.31 M59.5152 614.607 Q65.3254 614.607 68.3809 619.213 Q71.4596 623.796 71.4596 632.546 Q71.4596 641.273 68.3809 645.88 Q65.3254 650.463 59.5152 650.463 Q53.7051 650.463 50.6264 645.88 Q47.5708 641.273 47.5708 632.546 Q47.5708 623.796 50.6264 619.213 Q53.7051 614.607 59.5152 614.607 Z" fill="#000000" fill-rule="nonzero" fill-opacity="1" /><path clip-path="url(#clip970)" d="M79.6771 643.912 L84.5614 643.912 L84.5614 649.792 L79.6771 649.792 L79.6771 643.912 Z" fill="#000000" fill-rule="nonzero" fill-opacity="1" /><path clip-path="url(#clip970)" d="M104.746 618.31 Q101.135 618.31 99.3067 621.875 Q97.5011 625.417 97.5011 632.546 Q97.5011 639.653 99.3067 643.218 Q101.135 646.759 104.746 646.759 Q108.381 646.759 110.186 643.218 Q112.015 639.653 112.015 632.546 Q112.015 625.417 110.186 621.875 Q108.381 618.31 104.746 618.31 M104.746 614.607 Q110.557 614.607 113.612 619.213 Q116.691 623.796 116.691 632.546 Q116.691 641.273 113.612 645.88 Q110.557 650.463 104.746 650.463 Q98.9363 650.463 95.8576 645.88 Q92.8021 641.273 92.8021 632.546 Q92.8021 623.796 95.8576 619.213 Q98.9363 614.607 104.746 614.607 Z" fill="#000000" fill-rule="nonzero" fill-opacity="1" /><path clip-path="url(#clip970)" d="M134.908 633.38 Q131.575 633.38 129.654 635.162 Q127.756 636.944 127.756 640.069 Q127.756 643.194 129.654 644.977 Q131.575 646.759 134.908 646.759 Q138.242 646.759 140.163 644.977 Q142.084 643.171 142.084 640.069 Q142.084 636.944 140.163 635.162 Q138.265 633.38 134.908 633.38 M130.232 631.389 Q127.223 630.648 125.533 628.588 Q123.867 626.528 123.867 623.565 Q123.867 619.421 126.807 617.014 Q129.769 614.607 134.908 614.607 Q140.07 614.607 143.01 617.014 Q145.95 619.421 145.95 623.565 Q145.95 626.528 144.26 628.588 Q142.593 630.648 139.607 631.389 Q142.987 632.176 144.862 634.468 Q146.76 636.759 146.76 640.069 Q146.76 645.093 143.681 647.778 Q140.626 650.463 134.908 650.463 Q129.191 650.463 126.112 647.778 Q123.057 645.093 123.057 640.069 Q123.057 636.759 124.955 634.468 Q126.853 632.176 130.232 631.389 M128.519 624.005 Q128.519 626.69 130.186 628.194 Q131.876 629.699 134.908 629.699 Q137.918 629.699 139.607 628.194 Q141.32 626.69 141.32 624.005 Q141.32 621.32 139.607 619.815 Q137.918 618.31 134.908 618.31 Q131.876 618.31 130.186 619.815 Q128.519 621.32 128.519 624.005 Z" fill="#000000" fill-rule="nonzero" fill-opacity="1" /><path clip-path="url(#clip970)" d="M59.4226 412.91 Q55.8115 412.91 53.9828 416.475 Q52.1773 420.017 52.1773 427.146 Q52.1773 434.253 53.9828 437.818 Q55.8115 441.359 59.4226 441.359 Q63.0569 441.359 64.8624 437.818 Q66.6911 434.253 66.6911 427.146 Q66.6911 420.017 64.8624 416.475 Q63.0569 412.91 59.4226 412.91 M59.4226 409.207 Q65.2328 409.207 68.2883 413.813 Q71.367 418.396 71.367 427.146 Q71.367 435.873 68.2883 440.48 Q65.2328 445.063 59.4226 445.063 Q53.6125 445.063 50.5338 440.48 Q47.4782 435.873 47.4782 427.146 Q47.4782 418.396 50.5338 413.813 Q53.6125 409.207 59.4226 409.207 Z" fill="#000000" fill-rule="nonzero" fill-opacity="1" /><path clip-path="url(#clip970)" d="M79.5845 438.512 L84.4688 438.512 L84.4688 444.392 L79.5845 444.392 L79.5845 438.512 Z" fill="#000000" fill-rule="nonzero" fill-opacity="1" /><path clip-path="url(#clip970)" d="M95.4641 440.456 L103.103 440.456 L103.103 414.091 L94.7928 415.758 L94.7928 411.498 L103.057 409.832 L107.733 409.832 L107.733 440.456 L115.371 440.456 L115.371 444.392 L95.4641 444.392 L95.4641 440.456 Z" fill="#000000" fill-rule="nonzero" fill-opacity="1" /><path clip-path="url(#clip970)" d="M134.816 412.91 Q131.205 412.91 129.376 416.475 Q127.57 420.017 127.57 427.146 Q127.57 434.253 129.376 437.818 Q131.205 441.359 134.816 441.359 Q138.45 441.359 140.256 437.818 Q142.084 434.253 142.084 427.146 Q142.084 420.017 140.256 416.475 Q138.45 412.91 134.816 412.91 M134.816 409.207 Q140.626 409.207 143.681 413.813 Q146.76 418.396 146.76 427.146 Q146.76 435.873 143.681 440.48 Q140.626 445.063 134.816 445.063 Q129.006 445.063 125.927 440.48 Q122.871 435.873 122.871 427.146 Q122.871 418.396 125.927 413.813 Q129.006 409.207 134.816 409.207 Z" fill="#000000" fill-rule="nonzero" fill-opacity="1" /><path clip-path="url(#clip970)" d="M61.0198 207.51 Q57.4087 207.51 55.58 211.075 Q53.7745 214.617 53.7745 221.746 Q53.7745 228.853 55.58 232.418 Q57.4087 235.959 61.0198 235.959 Q64.6541 235.959 66.4596 232.418 Q68.2883 228.853 68.2883 221.746 Q68.2883 214.617 66.4596 211.075 Q64.6541 207.51 61.0198 207.51 M61.0198 203.807 Q66.83 203.807 69.8855 208.413 Q72.9642 212.996 72.9642 221.746 Q72.9642 230.473 69.8855 235.08 Q66.83 239.663 61.0198 239.663 Q55.2097 239.663 52.131 235.08 Q49.0754 230.473 49.0754 221.746 Q49.0754 212.996 52.131 208.413 Q55.2097 203.807 61.0198 203.807 Z" fill="#000000" fill-rule="nonzero" fill-opacity="1" /><path clip-path="url(#clip970)" d="M81.1818 233.112 L86.066 233.112 L86.066 238.992 L81.1818 238.992 L81.1818 233.112 Z" fill="#000000" fill-rule="nonzero" fill-opacity="1" /><path clip-path="url(#clip970)" d="M97.0613 235.057 L104.7 235.057 L104.7 208.691 L96.39 210.358 L96.39 206.098 L104.654 204.432 L109.33 204.432 L109.33 235.057 L116.969 235.057 L116.969 238.992 L97.0613 238.992 L97.0613 235.057 Z" fill="#000000" fill-rule="nonzero" fill-opacity="1" /><path clip-path="url(#clip970)" d="M130.441 235.057 L146.76 235.057 L146.76 238.992 L124.816 238.992 L124.816 235.057 Q127.478 232.302 132.061 227.672 Q136.668 223.02 137.848 221.677 Q140.093 219.154 140.973 217.418 Q141.876 215.658 141.876 213.969 Q141.876 211.214 139.931 209.478 Q138.01 207.742 134.908 207.742 Q132.709 207.742 130.256 208.506 Q127.825 209.27 125.047 210.821 L125.047 206.098 Q127.871 204.964 130.325 204.385 Q132.779 203.807 134.816 203.807 Q140.186 203.807 143.38 206.492 Q146.575 209.177 146.575 213.668 Q146.575 215.797 145.765 217.719 Q144.978 219.617 142.871 222.209 Q142.293 222.881 139.191 226.098 Q136.089 229.293 130.441 235.057 Z" fill="#000000" fill-rule="nonzero" fill-opacity="1" /><polyline clip-path="url(#clip972)" style="stroke:#009af9; stroke-linecap:round; stroke-linejoin:round; stroke-width:4; stroke-opacity:1; fill:none" points="278.477,1452.76 285.679,1452.43 292.881,1452.03 300.084,1451.54 307.286,1450.95 328.377,1448.44 349.469,1444.23 370.56,1437.4 391.652,1426.67 402.197,1419.34 412.743,1410.37 423.289,1399.49 433.834,1386.41 444.38,1370.82 454.926,1352.4 465.472,1330.82 476.017,1305.76 480.923,1292.83 485.829,1279.06 490.735,1264.42 495.641,1248.88 500.547,1232.42 505.452,1215.02 510.358,1196.68 515.264,1177.36 520.17,1157.08 525.076,1135.82 529.982,1113.59 534.888,1090.38 539.793,1066.22 544.699,1041.12 549.605,1015.09 554.511,988.169 561.087,950.747 567.662,911.883 574.238,871.697 580.814,830.332 593.965,744.732 607.117,656.623 620.268,567.837 633.419,480.443 639.995,437.963 646.571,396.678 653.146,356.879 659.722,318.855 665.156,288.976 670.589,260.659 676.023,234.053 681.456,209.303 686.89,186.543 692.323,165.901 697.757,147.491 703.19,131.419 708.624,117.776 714.057,106.639 719.491,98.0744 724.925,92.1297 730.358,88.8391 735.792,88.2208 741.225,90.2769 746.659,94.9935 751.711,101.741 756.764,110.728 761.817,121.906 766.869,135.217 771.922,150.593 776.975,167.953 782.027,187.21 787.08,208.265 792.133,231.014 797.185,255.343 802.238,281.134 807.291,308.262 812.343,336.597 817.396,366.007 822.449,396.355 827.501,427.504 852.873,591.106 878.244,754.286 884.587,793.188 890.929,830.906 897.272,867.253 903.615,902.058 909.958,935.165 916.301,966.435 922.644,995.746 928.986,1022.99 934.676,1045.6 940.365,1066.42 946.055,1085.41 951.745,1102.52 957.434,1117.74 963.124,1131.05 968.813,1142.43 974.503,1151.88 980.192,1159.41 985.882,1165.03 991.571,1168.76 997.261,1170.63 1002.95,1170.66 1008.64,1168.9 1014.33,1165.39 1020.02,1160.18 1026.53,1152.21 1033.04,1142.17 1039.56,1130.17 1046.07,1116.33 1052.58,1100.76 1059.09,1083.59 1065.61,1064.97 1072.12,1045.05 1085.14,1001.9 1098.17,955.516 1111.19,907.333 1124.22,858.886 1133.95,823.438 1143.69,789.374 1153.43,757.335 1163.16,727.933 1168.03,714.401 1172.9,701.738 1177.77,690.007 1182.63,679.267 1187.5,669.572 1192.37,660.971 1197.24,653.507 1202.11,647.22 1208.33,640.945 1214.56,636.702 1220.79,634.529 1227.01,634.447 1233.24,636.461 1239.47,640.559 1245.69,646.712 1251.92,654.875 1258.14,664.987 1264.37,676.975 1270.6,690.748 1276.82,706.207 1283.05,723.239 1289.28,741.722 1295.5,761.525 1301.73,782.513 1313.09,823.407 1324.46,866.881 1335.83,912.04 1347.19,958.011 1358.56,1003.97 1369.92,1049.17 1381.29,1092.95 1392.65,1134.76 1399.12,1157.49 1405.59,1179.37 1412.06,1200.35 1418.52,1220.37 1424.99,1239.42 1431.46,1257.46 1437.93,1274.49 1444.4,1290.49 1450.86,1305.49 1457.33,1319.49 1463.8,1332.51 1470.27,1344.57 1483.2,1365.97 1496.14,1383.97 1506.39,1396.05 1516.65,1406.39 1526.9,1415.16 1537.15,1422.54 1557.66,1433.8 1578.17,1441.4 1603.65,1447.29 1629.13,1450.6 1654.61,1452.38 1680.09,1453.3 1719.11,1453.87 1758.14,1454.05 1868.18,1454.11 1950.41,1454.11 2043.93,1454.1 2136.54,1453.83 2187.49,1452.81 2238.43,1449.03 2257.89,1445.96 2277.35,1441.36 2296.8,1434.65 2316.26,1425.15 2328.54,1417.38 2340.81,1407.98 2353.09,1396.76 2365.37,1383.53 2377.64,1368.1 2389.92,1350.35 2402.2,1330.19 2414.47,1307.59 2425.83,1284.55 2437.18,1259.57 2448.54,1232.82 2459.89,1204.54 2482.6,1144.74 2505.31,1083.57 2517.02,1052.85 2528.73,1023.55 2540.44,996.295 2552.15,971.745 2558,960.673 2563.86,950.498 2569.71,941.285 2575.57,933.094 2581.43,925.98 2587.28,919.989 2593.14,915.161 2598.99,911.53 2604.93,909.096 2610.86,907.934 2616.79,908.051 2622.73,909.447 2628.66,912.112 2634.6,916.027 2640.53,921.166 2646.47,927.492 2652.4,934.962 2658.34,943.525 2664.27,953.123 2670.21,963.692 2676.14,975.163 2682.08,987.461 2688.01,1000.51 2693.95,1014.22 2706.34,1044.65 2718.74,1076.86 2731.13,1110.06 2743.52,1143.54 2755.92,1176.62 2768.31,1208.69 2780.71,1239.27 2793.1,1267.95 2802.86,1289.01 2812.63,1308.62 2822.39,1326.71 2832.15,1343.25 2841.92,1358.26 2851.68,1371.76 2861.44,1383.81 2871.21,1394.47 2882.32,1405.04 2893.44,1414.07 2904.56,1421.7 2915.68,1428.09 2937.91,1437.76 2960.14,1444.16 2982.38,1448.26 3004.61,1450.78 3026.85,1452.27 3049.08,1453.13 3054.07,1453.26 3059.06,1453.38 3064.05,1453.48 3069.04,1453.57 "/>
</svg>
